<svg viewBox="0 0 160 160" xmlns="http://www.w3.org/2000/svg">
  <!-- Hintergrund -->
  <rect x="0" y="0" width="160" height="160" rx="28" fill="#1a1f2e"/>
  <rect x="0" y="0" width="160" height="160" rx="28" fill="none" stroke="#2c3550" stroke-width="1.5"/>
  <!-- Linkes Panel -->
  <rect x="20" y="22" width="54" height="116" rx="10" fill="#2a3a5c"/>
  <rect x="20" y="22" width="54" height="4" rx="2" fill="#5e81ac" opacity="0.6"/>
  <rect x="28" y="36" width="38" height="5" rx="2.5" fill="#5e81ac" opacity="0.9"/>
  <rect x="28" y="48" width="30" height="4" rx="2" fill="#3d5278" opacity="0.8"/>
  <rect x="28" y="58" width="34" height="4" rx="2" fill="#3d5278" opacity="0.6"/>
  <rect x="28" y="68" width="26" height="4" rx="2" fill="#3d5278" opacity="0.5"/>
  <rect x="28" y="78" width="32" height="4" rx="2" fill="#3d5278" opacity="0.4"/>
  <rect x="28" y="88" width="28" height="4" rx="2" fill="#3d5278" opacity="0.35"/>
  <rect x="28" y="98" width="36" height="4" rx="2" fill="#3d5278" opacity="0.3"/>
  <rect x="28" y="108" width="24" height="4" rx="2" fill="#3d5278" opacity="0.25"/>
  <!-- Splitter -->
  <rect x="77" y="22" width="6" height="116" rx="1" fill="#88c0d0" opacity="0.35"/>
  <!-- Rechtes Panel -->
  <rect x="86" y="22" width="54" height="116" rx="10" fill="#1e2d45"/>
  <rect x="86" y="22" width="54" height="4" rx="2" fill="#88c0d0" opacity="0.4"/>
  <rect x="94" y="36" width="38" height="5" rx="2.5" fill="#88c0d0" opacity="0.7"/>
  <rect x="94" y="48" width="28" height="4" rx="2" fill="#4a6a8a" opacity="0.7"/>
  <rect x="94" y="58" width="36" height="4" rx="2" fill="#4a6a8a" opacity="0.55"/>
  <rect x="94" y="68" width="22" height="4" rx="2" fill="#4a6a8a" opacity="0.45"/>
  <rect x="94" y="78" width="34" height="4" rx="2" fill="#4a6a8a" opacity="0.38"/>
  <rect x="94" y="88" width="26" height="4" rx="2" fill="#4a6a8a" opacity="0.3"/>
  <rect x="94" y="98" width="30" height="4" rx="2" fill="#4a6a8a" opacity="0.25"/>
  <rect x="94" y="108" width="38" height="4" rx="2" fill="#4a6a8a" opacity="0.2"/>
</svg>
